<?xml version="1.0" encoding="UTF-8"?>
<!DOCTYPE svg PUBLIC "-//W3C//DTD SVG 1.1//EN" "http://www.w3.org/Graphics/SVG/1.1/DTD/svg11.dtd">
<svg xmlns="http://www.w3.org/2000/svg" version="1.1" width="737px" height="339px" style="shape-rendering:geometricPrecision; text-rendering:geometricPrecision; image-rendering:optimizeQuality; fill-rule:evenodd; clip-rule:evenodd" xmlns:xlink="http://www.w3.org/1999/xlink">
<g><path style="opacity:0.425" fill="#bbb8bb" d="M 170.5,54.5 C 190.337,53.1721 210.337,53.1721 230.5,54.5C 230.376,55.1067 230.043,55.44 229.5,55.5C 210.007,54.5029 190.34,54.1696 170.5,54.5 Z"/></g>
<g><path style="opacity:0.691" fill="#d8d8db" d="M 552.5,54.5 C 584.662,53.5018 616.996,53.1684 649.5,53.5C 649.737,54.791 649.404,55.791 648.5,56.5C 616.851,54.5073 584.851,53.8406 552.5,54.5 Z"/></g>
<g><path style="opacity:1" fill="#a09e9c" d="M 457.5,56.5 C 405.314,56.8224 353.148,56.4891 301,55.5C 299.674,55.7549 298.674,56.4216 298,57.5C 297.502,60.4816 297.335,63.4816 297.5,66.5C 296.849,67.0906 296.182,67.7573 295.5,68.5C 295.167,68.1667 294.833,67.8333 294.5,67.5C 295.933,64.667 296.6,61.667 296.5,58.5C 296.286,56.8561 296.62,55.3561 297.5,54C 346.833,53.3333 396.167,53.3333 445.5,54C 449.796,54.0756 453.796,54.9089 457.5,56.5 Z"/></g>
<g><path style="opacity:1" fill="#bbb5b4" d="M 552.5,54.5 C 584.851,53.8406 616.851,54.5073 648.5,56.5C 647.022,58.6453 645.688,60.9787 644.5,63.5C 643.695,66.3044 643.028,69.1377 642.5,72C 642.164,73.0299 641.497,73.5299 640.5,73.5C 641.185,68.7613 642.185,64.0946 643.5,59.5C 644.757,58.3774 644.424,57.7107 642.5,57.5C 610.003,56.3359 577.336,56.1692 544.5,57C 539.988,58.6359 535.322,59.6359 530.5,60C 529.748,60.6708 529.414,61.5041 529.5,62.5C 528.833,63.1667 528.167,63.8333 527.5,64.5C 523.277,65.6109 519.277,67.2776 515.5,69.5C 515.511,67.9826 516.177,66.8159 517.5,66C 516.906,65.5357 516.239,65.369 515.5,65.5C 526.735,58.602 539.068,54.9354 552.5,54.5 Z"/></g>
<g><path style="opacity:1" fill="#b09a9a" d="M 457.5,56.5 C 465.829,58.494 472.162,63.1606 476.5,70.5C 476.508,73.5448 476.841,76.5448 477.5,79.5C 475.378,74.2653 472.044,69.932 467.5,66.5C 462.801,61.9861 457.135,59.3194 450.5,58.5C 400.665,57.1689 350.665,57.1689 300.5,58.5C 299.691,60.0709 299.357,61.7376 299.5,63.5C 298.833,64.5 298.167,65.5 297.5,66.5C 297.335,63.4816 297.502,60.4816 298,57.5C 298.674,56.4216 299.674,55.7549 301,55.5C 353.148,56.4891 405.314,56.8224 457.5,56.5 Z"/></g>
<g><path style="opacity:1" fill="#c6acab" d="M 642.5,57.5 C 611.995,57.1685 581.662,57.5019 551.5,58.5C 544.042,59.1917 536.709,60.525 529.5,62.5C 529.414,61.5041 529.748,60.6708 530.5,60C 535.322,59.6359 539.988,58.6359 544.5,57C 577.336,56.1692 610.003,56.3359 642.5,57.5 Z"/></g>
<g><path style="opacity:1" fill="#948b84" d="M 170.5,54.5 C 190.34,54.1696 210.007,54.5029 229.5,55.5C 226.664,61.1778 223.331,66.5112 219.5,71.5C 219.44,70.9569 219.107,70.6236 218.5,70.5C 217.482,71.1925 216.482,71.8592 215.5,72.5C 215.5,71.8333 215.5,71.1667 215.5,70.5C 218.417,67.79 220.417,64.4567 221.5,60.5C 222.404,59.791 222.737,58.791 222.5,57.5C 206.005,56.3384 189.338,56.1717 172.5,57C 169.278,59.9556 166.944,63.4556 165.5,67.5C 162.585,70.9901 160.418,74.9901 159,79.5C 154.798,82.8474 151.632,86.8474 149.5,91.5C 150.167,88.8333 150.833,86.1667 151.5,83.5C 157.448,73.5579 163.781,63.8912 170.5,54.5 Z"/></g>
<g><path style="opacity:1" fill="#997b56" d="M 222.5,57.5 C 206.163,57.3334 189.83,57.5001 173.5,58C 171.536,59.451 170.203,61.2843 169.5,63.5C 168.167,64.8333 166.833,66.1667 165.5,67.5C 166.944,63.4556 169.278,59.9556 172.5,57C 189.338,56.1717 206.005,56.3384 222.5,57.5 Z"/></g>
<g><path style="opacity:1" fill="#da9b3f" d="M 222.5,57.5 C 222.737,58.791 222.404,59.791 221.5,60.5C 214.03,59.169 206.196,58.5023 198,58.5C 190.167,58.6667 182.333,58.8333 174.5,59C 172.963,60.7073 171.296,62.2073 169.5,63.5C 170.203,61.2843 171.536,59.451 173.5,58C 189.83,57.5001 206.163,57.3334 222.5,57.5 Z"/></g>
<g><path style="opacity:1" fill="#6f2a31" d="M 450.5,58.5 C 401.499,58.3333 352.499,58.5 303.5,59C 301.391,59.9066 300.058,61.4066 299.5,63.5C 299.357,61.7376 299.691,60.0709 300.5,58.5C 350.665,57.1689 400.665,57.1689 450.5,58.5 Z"/></g>
<g><path style="opacity:1" fill="#702a32" d="M 551.5,58.5 C 581.662,57.5019 611.995,57.1685 642.5,57.5C 644.424,57.7107 644.757,58.3774 643.5,59.5C 613.005,58.5019 582.338,58.1685 551.5,58.5 Z"/></g>
<g><path style="opacity:1" fill="#630610" d="M 551.5,58.5 C 582.338,58.1685 613.005,58.5019 643.5,59.5C 642.185,64.0946 641.185,68.7613 640.5,73.5C 637.723,80.9424 635.723,88.609 634.5,96.5C 605.402,97.1589 576.402,97.8256 547.5,98.5C 540.03,99.9891 533.03,102.656 526.5,106.5C 526.712,104.616 527.712,103.283 529.5,102.5C 526.658,101.996 525.325,100.329 525.5,97.5C 527.677,97.5861 529.677,98.2528 531.5,99.5C 531.423,97.6898 532.59,96.3565 535,95.5C 536.299,96.9797 537.966,97.6464 540,97.5C 570.486,96.6933 600.986,96.1933 631.5,96C 634.238,92.3222 635.071,88.1555 634,83.5C 632.987,82.5037 632.154,81.5037 631.5,80.5C 633.525,78.1633 634.859,75.4966 635.5,72.5C 636.822,72.67 637.989,72.3366 639,71.5C 640.266,67.6049 640.766,63.6049 640.5,59.5C 609.167,59.9555 577.834,60.4555 546.5,61C 546.097,62.6041 544.764,63.7708 542.5,64.5C 540.941,63.5535 539.274,62.8868 537.5,62.5C 534.218,63.4877 530.885,64.1543 527.5,64.5C 528.167,63.8333 528.833,63.1667 529.5,62.5C 536.709,60.525 544.042,59.1917 551.5,58.5 Z"/></g>
<g><path style="opacity:1" fill="#fd9d17" d="M 221.5,60.5 C 220.417,64.4567 218.417,67.79 215.5,70.5C 209.556,78.4162 204.223,86.7496 199.5,95.5C 198.526,99.7344 196.526,103.401 193.5,106.5C 189.182,111.553 185.682,117.22 183,123.5C 180.154,127.83 176.82,131.83 173,135.5C 171.589,137.65 170.755,139.984 170.5,142.5C 168.151,143.957 165.818,145.291 163.5,146.5C 163.662,148.527 163.495,150.527 163,152.5C 161.519,153.471 160.685,154.804 160.5,156.5C 156.073,164.361 151.407,172.028 146.5,179.5C 146.5,180.167 146.5,180.833 146.5,181.5C 145.833,181.833 145.167,182.167 144.5,182.5C 143.566,183.568 143.232,184.901 143.5,186.5C 162.17,186.333 180.836,186.5 199.5,187C 200.451,187.718 200.617,188.551 200,189.5C 196.62,191.717 193.787,194.384 191.5,197.5C 184.698,201.906 178.698,207.239 173.5,213.5C 167.227,217.107 161.894,221.773 157.5,227.5C 151.919,230.413 147.253,234.413 143.5,239.5C 140.932,239.594 139.432,240.928 139,243.5C 134.024,246.313 129.858,249.98 126.5,254.5C 125.71,255.401 124.71,256.068 123.5,256.5C 119.544,258.788 116.211,261.788 113.5,265.5C 111.5,267.5 109.5,269.5 107.5,271.5C 102.574,273.763 98.5736,277.096 95.5,281.5C 92.5,284.167 89.5,286.833 86.5,289.5C 84.0676,290.75 81.7343,292.25 79.5,294C 78.1772,294.816 77.5106,295.983 77.5,297.5C 77.1667,297.5 76.8333,297.5 76.5,297.5C 75.5028,297.53 74.8361,297.03 74.5,296C 75.9787,293.029 77.6454,290.196 79.5,287.5C 79.4021,285.447 80.0687,283.78 81.5,282.5C 84.6227,279.482 86.6227,275.816 87.5,271.5C 89.3264,269.853 90.6597,267.853 91.5,265.5C 96.044,260.949 99.3774,255.616 101.5,249.5C 102.996,244.68 105.662,240.68 109.5,237.5C 111.129,236.375 112.629,235.041 114,233.5C 114.113,231.026 115.113,229.026 117,227.5C 117.743,225.559 117.576,223.726 116.5,222C 99.8026,222.155 83.4693,221.322 67.5,219.5C 68.9418,218.18 69.6085,216.514 69.5,214.5C 73.5746,210.024 76.9079,205.024 79.5,199.5C 81.8532,197.14 83.8532,194.473 85.5,191.5C 87.3264,189.853 88.6597,187.853 89.5,185.5C 90.4959,185.586 91.3292,185.252 92,184.5C 94.1585,180.19 96.8251,176.19 100,172.5C 100.49,171.207 100.657,169.873 100.5,168.5C 103.404,166.1 105.737,163.267 107.5,160C 110.493,158.631 113.493,158.297 116.5,159C 115.833,158 115.167,157 114.5,156C 115.291,153.25 115.291,150.417 114.5,147.5C 117.002,145.83 119.002,143.664 120.5,141C 122.107,141.019 123.774,141.185 125.5,141.5C 125.489,139.453 125.156,137.453 124.5,135.5C 125.278,133.853 126.444,132.52 128,131.5C 128.119,128.005 129.285,125.005 131.5,122.5C 133.041,117.09 135.875,112.423 140,108.5C 141.193,106.114 142.36,103.78 143.5,101.5C 144.34,99.1475 145.674,97.1475 147.5,95.5C 155.733,88.2943 161.9,79.6277 166,69.5C 168.91,68.5497 170.077,66.5497 169.5,63.5C 171.296,62.2073 172.963,60.7073 174.5,59C 182.333,58.8333 190.167,58.6667 198,58.5C 206.196,58.5023 214.03,59.169 221.5,60.5 Z"/></g>
<g><path style="opacity:1" fill="#6a010c" d="M 254.5,89.5 C 256.598,97.7949 259.265,105.795 262.5,113.5C 265.242,122.059 267.575,130.726 269.5,139.5C 270.248,146.745 272.581,153.411 276.5,159.5C 277.425,160.641 278.259,160.641 279,159.5C 278.68,156.54 278.68,153.54 279,150.5C 279.333,150.833 279.667,151.167 280,151.5C 282.583,142.339 284.25,133.005 285,123.5C 287.544,118.522 288.878,113.188 289,107.5C 289.915,106.672 290.581,105.672 291,104.5C 292.152,98.194 292.985,91.8607 293.5,85.5C 294.833,79.1681 296.166,72.8347 297.5,66.5C 298.167,65.5 298.833,64.5 299.5,63.5C 300.058,61.4066 301.391,59.9066 303.5,59C 352.499,58.5 401.499,58.3333 450.5,58.5C 457.135,59.3194 462.801,61.9861 467.5,66.5C 470.927,71.7915 473.76,77.4582 476,83.5C 477.034,90.3667 476.367,97.0333 474,103.5C 473.333,105.833 473.333,108.167 474,110.5C 475.973,109.36 477.807,108.027 479.5,106.5C 480.086,106.709 480.586,107.043 481,107.5C 483.102,102.912 484.935,98.2454 486.5,93.5C 494.468,83.3626 504.135,75.3626 515.5,69.5C 519.277,67.2776 523.277,65.6109 527.5,64.5C 530.885,64.1543 534.218,63.4877 537.5,62.5C 539.274,62.8868 540.941,63.5535 542.5,64.5C 544.764,63.7708 546.097,62.6041 546.5,61C 577.834,60.4555 609.167,59.9555 640.5,59.5C 640.766,63.6049 640.266,67.6049 639,71.5C 637.989,72.3366 636.822,72.67 635.5,72.5C 634.859,75.4966 633.525,78.1633 631.5,80.5C 632.154,81.5037 632.987,82.5037 634,83.5C 635.071,88.1555 634.238,92.3222 631.5,96C 600.986,96.1933 570.486,96.6933 540,97.5C 537.966,97.6464 536.299,96.9797 535,95.5C 532.59,96.3565 531.423,97.6898 531.5,99.5C 529.677,98.2528 527.677,97.5861 525.5,97.5C 525.325,100.329 526.658,101.996 529.5,102.5C 527.712,103.283 526.712,104.616 526.5,106.5C 521.833,110.5 517.5,114.833 513.5,119.5C 511.05,121.629 509.383,124.296 508.5,127.5C 501.7,141.127 501.867,154.793 509,168.5C 511.037,170.706 513.203,172.706 515.5,174.5C 518.952,177.439 522.952,179.439 527.5,180.5C 554.146,182.491 581.146,183.158 608.5,182.5C 608.5,183.5 608.5,184.5 608.5,185.5C 586.856,186.444 565.189,186.777 543.5,186.5C 543.5,187.5 543.5,188.5 543.5,189.5C 564.511,189.167 585.511,189.5 606.5,190.5C 605.804,196.598 604.638,202.598 603,208.5C 602.333,209.167 601.667,209.833 601,210.5C 599.414,209.624 597.914,208.624 596.5,207.5C 595.692,207.808 595.025,208.308 594.5,209C 596.248,210.87 598.415,212.037 601,212.5C 601.687,214.568 601.52,216.568 600.5,218.5C 573.506,219.667 546.506,219.833 519.5,219C 512.81,217.562 506.143,216.062 499.5,214.5C 493.905,212.703 488.905,209.87 484.5,206C 480.267,201 475.933,196.166 471.5,191.5C 466.486,182.123 463.486,172.123 462.5,161.5C 462.666,156.489 462.499,151.489 462,146.5C 461.283,147.044 460.783,147.711 460.5,148.5C 456.173,152.822 451.506,156.822 446.5,160.5C 448.186,161.857 449.852,163.19 451.5,164.5C 452.072,165.973 452.905,167.307 454,168.5C 454.167,170.167 454.333,171.833 454.5,173.5C 453.164,181.173 451.83,188.84 450.5,196.5C 447.59,203.462 445.59,210.795 444.5,218.5C 428.5,218.5 412.5,218.5 396.5,218.5C 396.5,217.5 396.5,216.5 396.5,215.5C 398.672,208.981 400.338,202.314 401.5,195.5C 404.682,185.864 401.349,180.031 391.5,178C 364.835,177.5 338.169,177.333 311.5,177.5C 311.007,179.806 310.674,182.139 310.5,184.5C 309.766,185.708 309.433,187.041 309.5,188.5C 306.523,199.734 303.523,211.068 300.5,222.5C 282.09,222.82 263.757,222.486 245.5,221.5C 242.492,212.071 239.492,202.738 236.5,193.5C 234.405,185.215 231.738,177.215 228.5,169.5C 211.341,168.503 194.008,168.17 176.5,168.5C 177.288,165.03 179.288,162.363 182.5,160.5C 184.181,155.826 185.847,151.16 187.5,146.5C 191.597,143.026 194.763,138.693 197,133.5C 198.171,132.107 199.671,131.273 201.5,131C 201.043,130.586 200.709,130.086 200.5,129.5C 201.698,129.06 202.865,128.727 204,128.5C 206.02,124.079 207.687,119.412 209,114.5C 212.495,110.183 215.495,105.516 218,100.5C 218.667,99.1667 219.333,99.1667 220,100.5C 220.662,98.1873 221.162,95.854 221.5,93.5C 222.82,90.8599 224.153,88.1932 225.5,85.5C 231.474,76.5178 237.474,67.5178 243.5,58.5C 247.395,68.8573 251.062,79.1906 254.5,89.5 Z M 429.5,110.5 C 428.93,122.987 422.93,131.654 411.5,136.5C 396.02,137.126 380.52,137.46 365,137.5C 350.817,137.499 336.983,136.833 323.5,135.5C 324.657,131.207 325.657,126.873 326.5,122.5C 330.05,116.561 333.05,110.228 335.5,103.5C 336.025,102.808 336.692,102.308 337.5,102C 363.5,101.333 389.5,101.333 415.5,102C 421.359,103.086 426.025,105.92 429.5,110.5 Z M 454.5,157.5 C 456.76,158.238 456.927,159.238 455,160.5C 454.517,159.552 454.351,158.552 454.5,157.5 Z"/></g>
<g><path style="opacity:1" fill="#de9e44" d="M 169.5,63.5 C 170.077,66.5497 168.91,68.5497 166,69.5C 161.9,79.6277 155.733,88.2943 147.5,95.5C 147.66,93.847 148.326,92.5137 149.5,91.5C 151.632,86.8474 154.798,82.8474 159,79.5C 160.418,74.9901 162.585,70.9901 165.5,67.5C 166.833,66.1667 168.167,64.8333 169.5,63.5 Z"/></g>
<g><path style="opacity:1" fill="#a19392" d="M 254.5,79.5 C 254.5,82.8333 254.5,86.1667 254.5,89.5C 251.062,79.1906 247.395,68.8573 243.5,58.5C 237.474,67.5178 231.474,76.5178 225.5,85.5C 225.67,84.1779 225.337,83.0113 224.5,82C 227.845,81.1387 228.845,79.3053 227.5,76.5C 232.409,67.0142 238.075,58.0142 244.5,49.5C 248.423,59.2697 251.757,69.2697 254.5,79.5 Z"/></g>
<g><path style="opacity:1" fill="#d5c6c5" d="M 515.5,65.5 C 516.239,65.369 516.906,65.5357 517.5,66C 516.177,66.8159 515.511,67.9826 515.5,69.5C 504.135,75.3626 494.468,83.3626 486.5,93.5C 481.764,97.7449 477.931,102.745 475,108.5C 475.554,104.147 476.554,99.8137 478,95.5C 478.676,90.1294 478.509,84.7961 477.5,79.5C 476.841,76.5448 476.508,73.5448 476.5,70.5C 477.892,72.2726 479.059,74.2726 480,76.5C 481.19,80.9418 482.524,85.2751 484,89.5C 492.974,79.3414 503.474,71.3414 515.5,65.5 Z"/></g>
<g><path style="opacity:1" fill="#b3adab" d="M 219.5,71.5 C 214.997,79.8445 209.997,87.8445 204.5,95.5C 205.025,91.6666 206.025,88 207.5,84.5C 210.343,80.6779 213.01,76.6779 215.5,72.5C 216.482,71.8592 217.482,71.1925 218.5,70.5C 219.107,70.6236 219.44,70.9569 219.5,71.5 Z"/></g>
<g><path style="opacity:1" fill="#beb2b2" d="M 296.5,58.5 C 296.6,61.667 295.933,64.667 294.5,67.5C 294.833,67.8333 295.167,68.1667 295.5,68.5C 296.182,67.7573 296.849,67.0906 297.5,66.5C 296.166,72.8347 294.833,79.1681 293.5,85.5C 291.167,93.4949 288.834,101.495 286.5,109.5C 286.584,105.245 287.251,101.078 288.5,97C 288.011,95.8615 287.678,94.6948 287.5,93.5C 289.74,81.5369 292.74,69.8703 296.5,58.5 Z"/></g>
<g><path style="opacity:1" fill="#bbb6b4" d="M 151.5,83.5 C 150.833,86.1667 150.167,88.8333 149.5,91.5C 148.326,92.5137 147.66,93.847 147.5,95.5C 145.674,97.1475 144.34,99.1475 143.5,101.5C 141.661,102.508 140.328,104.008 139.5,106C 138.552,106.483 137.552,106.649 136.5,106.5C 141.114,98.5583 146.114,90.8916 151.5,83.5 Z"/></g>
<g><path style="opacity:1" fill="#d8a152" d="M 215.5,70.5 C 215.5,71.1667 215.5,71.8333 215.5,72.5C 213.01,76.6779 210.343,80.6779 207.5,84.5C 205.089,88.3093 202.422,91.976 199.5,95.5C 204.223,86.7496 209.556,78.4162 215.5,70.5 Z"/></g>
<g><path style="opacity:1" fill="#e9e0e0" d="M 648.5,56.5 C 645.77,70.0842 642.104,83.4176 637.5,96.5C 636.643,97.4252 635.643,98.0919 634.5,98.5C 634.5,97.8333 634.5,97.1667 634.5,96.5C 635.723,88.609 637.723,80.9424 640.5,73.5C 641.497,73.5299 642.164,73.0299 642.5,72C 643.028,69.1377 643.695,66.3044 644.5,63.5C 645.688,60.9787 647.022,58.6453 648.5,56.5 Z"/></g>
<g><path style="opacity:1" fill="#c6bbbb" d="M 254.5,79.5 C 256.405,83.2157 257.739,87.2157 258.5,91.5C 259.021,99.0202 260.355,106.354 262.5,113.5C 259.265,105.795 256.598,97.7949 254.5,89.5C 254.5,86.1667 254.5,82.8333 254.5,79.5 Z"/></g>
<g><path style="opacity:0.495" fill="#a57376" d="M 634.5,96.5 C 634.5,97.1667 634.5,97.8333 634.5,98.5C 605.5,98.5 576.5,98.5 547.5,98.5C 576.402,97.8256 605.402,97.1589 634.5,96.5 Z"/></g>
<g><path style="opacity:1" fill="#631018" d="M 467.5,66.5 C 472.044,69.932 475.378,74.2653 477.5,79.5C 478.509,84.7961 478.676,90.1294 478,95.5C 476.554,99.8137 475.554,104.147 475,108.5C 477.931,102.745 481.764,97.7449 486.5,93.5C 484.935,98.2454 483.102,102.912 481,107.5C 480.586,107.043 480.086,106.709 479.5,106.5C 477.807,108.027 475.973,109.36 474,110.5C 473.333,108.167 473.333,105.833 474,103.5C 476.367,97.0333 477.034,90.3667 476,83.5C 473.76,77.4582 470.927,71.7915 467.5,66.5 Z"/></g>
<g><path style="opacity:1" fill="#cdbebd" d="M 227.5,76.5 C 228.845,79.3053 227.845,81.1387 224.5,82C 225.337,83.0113 225.67,84.1779 225.5,85.5C 224.153,88.1932 222.82,90.8599 221.5,93.5C 214.441,103.228 207.774,113.228 201.5,123.5C 202.841,119.953 204.008,116.286 205,112.5C 205.333,112.833 205.667,113.167 206,113.5C 206.494,111.866 206.66,110.199 206.5,108.5C 213.016,97.4545 220.016,86.7878 227.5,76.5 Z"/></g>
<g><path style="opacity:1" fill="#d7cab9" d="M 143.5,101.5 C 142.36,103.78 141.193,106.114 140,108.5C 135.875,112.423 133.041,117.09 131.5,122.5C 128.167,126.833 124.833,131.167 121.5,135.5C 122.167,132.5 122.833,129.5 123.5,126.5C 127.338,119.484 131.672,112.817 136.5,106.5C 137.552,106.649 138.552,106.483 139.5,106C 140.328,104.008 141.661,102.508 143.5,101.5 Z"/></g>
<g><path style="opacity:1" fill="#cfc7bc" d="M 207.5,84.5 C 206.025,88 205.025,91.6666 204.5,95.5C 197.898,107.053 190.564,118.053 182.5,128.5C 186.13,121.188 189.797,113.854 193.5,106.5C 196.526,103.401 198.526,99.7344 199.5,95.5C 202.422,91.976 205.089,88.3093 207.5,84.5 Z"/></g>
<g><path style="opacity:0.435" fill="#e1d2d1" d="M 429.5,110.5 C 426.025,105.92 421.359,103.086 415.5,102C 389.5,101.333 363.5,101.333 337.5,102C 336.692,102.308 336.025,102.808 335.5,103.5C 333.05,110.228 330.05,116.561 326.5,122.5C 328.029,114.718 330.029,107.051 332.5,99.5C 361.828,98.3335 391.161,98.1668 420.5,99C 425.974,100.966 428.974,104.799 429.5,110.5 Z"/></g>
<g><path style="opacity:1" fill="#651319" d="M 221.5,93.5 C 221.162,95.854 220.662,98.1873 220,100.5C 219.333,99.1667 218.667,99.1667 218,100.5C 215.495,105.516 212.495,110.183 209,114.5C 207.687,119.412 206.02,124.079 204,128.5C 202.865,128.727 201.698,129.06 200.5,129.5C 200.709,130.086 201.043,130.586 201.5,131C 199.671,131.273 198.171,132.107 197,133.5C 194.763,138.693 191.597,143.026 187.5,146.5C 188.399,143.605 189.733,140.938 191.5,138.5C 195.564,134.053 198.898,129.053 201.5,123.5C 207.774,113.228 214.441,103.228 221.5,93.5 Z"/></g>
<g><path style="opacity:1" fill="#ede5e5" d="M 258.5,91.5 C 262.597,102.959 266.43,114.626 270,126.5C 270.795,129.115 272.295,131.115 274.5,132.5C 276.353,131.811 277.519,130.478 278,128.5C 280.725,116.59 283.892,104.923 287.5,93.5C 287.678,94.6948 288.011,95.8615 288.5,97C 287.251,101.078 286.584,105.245 286.5,109.5C 282.732,124.168 278.899,138.835 275,153.5C 273.629,148.536 271.796,143.869 269.5,139.5C 267.575,130.726 265.242,122.059 262.5,113.5C 260.355,106.354 259.021,99.0202 258.5,91.5 Z"/></g>
<g><path style="opacity:0.373" fill="#f2d5b1" d="M 193.5,106.5 C 189.797,113.854 186.13,121.188 182.5,128.5C 178.126,132.872 174.126,137.539 170.5,142.5C 170.755,139.984 171.589,137.65 173,135.5C 176.82,131.83 180.154,127.83 183,123.5C 185.682,117.22 189.182,111.553 193.5,106.5 Z"/></g>
<g><path style="opacity:1" fill="#ebe4e4" d="M 206.5,108.5 C 206.66,110.199 206.494,111.866 206,113.5C 205.667,113.167 205.333,112.833 205,112.5C 204.008,116.286 202.841,119.953 201.5,123.5C 198.898,129.053 195.564,134.053 191.5,138.5C 192.007,133.777 192.84,129.111 194,124.5C 198.428,119.279 202.595,113.945 206.5,108.5 Z"/></g>
<g><path style="opacity:1" fill="#f2efee" d="M 513.5,119.5 C 508.888,131.795 507.222,144.461 508.5,157.5C 507.114,154.785 506.447,151.785 506.5,148.5C 507.624,144.481 507.624,140.481 506.5,136.5C 508.06,134.444 508.727,131.444 508.5,127.5C 509.383,124.296 511.05,121.629 513.5,119.5 Z"/></g>
<g><path style="opacity:1" fill="#f4a235" d="M 131.5,122.5 C 129.285,125.005 128.119,128.005 128,131.5C 126.444,132.52 125.278,133.853 124.5,135.5C 125.156,137.453 125.489,139.453 125.5,141.5C 123.774,141.185 122.107,141.019 120.5,141C 119.002,143.664 117.002,145.83 114.5,147.5C 116.458,143.308 118.791,139.308 121.5,135.5C 124.833,131.167 128.167,126.833 131.5,122.5 Z"/></g>
<g><path style="opacity:0.784" fill="#783338" d="M 323.5,135.5 C 336.983,136.833 350.817,137.499 365,137.5C 380.52,137.46 396.02,137.126 411.5,136.5C 382.185,138.492 352.519,139.159 322.5,138.5C 322.263,137.209 322.596,136.209 323.5,135.5 Z"/></g>
<g><path style="opacity:1" fill="#671017" d="M 293.5,85.5 C 292.985,91.8607 292.152,98.194 291,104.5C 290.581,105.672 289.915,106.672 289,107.5C 288.878,113.188 287.544,118.522 285,123.5C 284.25,133.005 282.583,142.339 280,151.5C 279.667,151.167 279.333,150.833 279,150.5C 278.68,153.54 278.68,156.54 279,159.5C 278.259,160.641 277.425,160.641 276.5,159.5C 272.581,153.411 270.248,146.745 269.5,139.5C 271.796,143.869 273.629,148.536 275,153.5C 278.899,138.835 282.732,124.168 286.5,109.5C 288.834,101.495 291.167,93.4949 293.5,85.5 Z"/></g>
<g><path style="opacity:1" fill="#f5b762" d="M 170.5,142.5 C 167.996,147.515 164.996,152.181 161.5,156.5C 161.167,156.5 160.833,156.5 160.5,156.5C 160.685,154.804 161.519,153.471 163,152.5C 163.495,150.527 163.662,148.527 163.5,146.5C 165.818,145.291 168.151,143.957 170.5,142.5 Z"/></g>
<g><path style="opacity:1" fill="#f6a435" d="M 114.5,147.5 C 115.291,150.417 115.291,153.25 114.5,156C 115.167,157 115.833,158 116.5,159C 113.493,158.297 110.493,158.631 107.5,160C 105.737,163.267 103.404,166.1 100.5,168.5C 104.922,161.32 109.588,154.32 114.5,147.5 Z"/></g>
<g><path style="opacity:1" fill="#9f5e66" d="M 462.5,161.5 C 462.167,161.5 461.833,161.5 461.5,161.5C 461.818,156.968 461.485,152.634 460.5,148.5C 460.783,147.711 461.283,147.044 462,146.5C 462.499,151.489 462.666,156.489 462.5,161.5 Z"/></g>
<g><path style="opacity:1" fill="#e8dddc" d="M 460.5,148.5 C 461.485,152.634 461.818,156.968 461.5,161.5C 461.533,165.869 461.2,170.202 460.5,174.5C 459.022,175.448 458.022,176.781 457.5,178.5C 457.809,173.733 457.309,169.066 456,164.5C 455.692,165.308 455.192,165.975 454.5,166.5C 453.735,165.388 452.735,164.721 451.5,164.5C 449.852,163.19 448.186,161.857 446.5,160.5C 451.506,156.822 456.173,152.822 460.5,148.5 Z M 454.5,157.5 C 454.351,158.552 454.517,159.552 455,160.5C 456.927,159.238 456.76,158.238 454.5,157.5 Z"/></g>
<g><path style="opacity:0.106" fill="#f3e1e8" d="M 176.5,162.5 C 175.559,164.466 174.559,166.466 173.5,168.5C 174.689,169.429 176.022,169.762 177.5,169.5C 170.003,169.395 169.669,167.061 176.5,162.5 Z"/></g>
<g><path style="opacity:1" fill="#691d24" d="M 187.5,146.5 C 185.847,151.16 184.181,155.826 182.5,160.5C 179.288,162.363 177.288,165.03 176.5,168.5C 194.008,168.17 211.341,168.503 228.5,169.5C 213.833,169.5 199.167,169.5 184.5,169.5C 182.167,169.5 179.833,169.5 177.5,169.5C 176.022,169.762 174.689,169.429 173.5,168.5C 174.559,166.466 175.559,164.466 176.5,162.5C 179.686,156.782 183.352,151.448 187.5,146.5 Z"/></g>
<g><path style="opacity:1" fill="#eda94c" d="M 100.5,168.5 C 100.657,169.873 100.49,171.207 100,172.5C 96.8251,176.19 94.1585,180.19 92,184.5C 91.3292,185.252 90.4959,185.586 89.5,185.5C 92.9206,179.655 96.5872,173.988 100.5,168.5 Z"/></g>
<g><path style="opacity:0.302" fill="#fee2b8" d="M 160.5,156.5 C 160.833,156.5 161.167,156.5 161.5,156.5C 157.512,163.806 153.512,171.14 149.5,178.5C 148.609,179.11 147.609,179.443 146.5,179.5C 151.407,172.028 156.073,164.361 160.5,156.5 Z"/></g>
<g><path style="opacity:1" fill="#dcd0d0" d="M 508.5,127.5 C 508.727,131.444 508.06,134.444 506.5,136.5C 507.624,140.481 507.624,144.481 506.5,148.5C 506.447,151.785 507.114,154.785 508.5,157.5C 511.78,167.461 518.447,173.794 528.5,176.5C 526.94,176.519 525.44,176.852 524,177.5C 521.268,176.114 518.435,175.114 515.5,174.5C 513.203,172.706 511.037,170.706 509,168.5C 501.867,154.793 501.7,141.127 508.5,127.5 Z"/></g>
<g><path style="opacity:0.173" fill="#edeceb" d="M 530.5,176.5 C 559.169,176.333 587.835,176.5 616.5,177C 617.341,178.996 617.008,180.829 615.5,182.5C 615.579,181.07 615.246,179.736 614.5,178.5C 586.336,177.833 558.336,177.167 530.5,176.5 Z"/></g>
<g><path style="opacity:1" fill="#cdabab" d="M 401.5,195.5 C 400.681,192.695 400.181,189.695 400,186.5C 399.617,187.056 399.117,187.389 398.5,187.5C 398.5,185.5 398.5,183.5 398.5,181.5C 395.513,181.002 392.513,180.502 389.5,180C 363.835,179.5 338.169,179.333 312.5,179.5C 312.598,181.553 311.931,183.22 310.5,184.5C 310.674,182.139 311.007,179.806 311.5,177.5C 338.169,177.333 364.835,177.5 391.5,178C 401.349,180.031 404.682,185.864 401.5,195.5 Z"/></g>
<g><path style="opacity:1" fill="#c7bbbd" d="M 515.5,174.5 C 518.435,175.114 521.268,176.114 524,177.5C 525.44,176.852 526.94,176.519 528.5,176.5C 529.167,176.5 529.833,176.5 530.5,176.5C 558.336,177.167 586.336,177.833 614.5,178.5C 615.246,179.736 615.579,181.07 615.5,182.5C 614.611,187.728 613.278,192.728 611.5,197.5C 611.5,193.167 611.5,188.833 611.5,184.5C 611.5,183.833 611.5,183.167 611.5,182.5C 612.043,182.44 612.376,182.107 612.5,181.5C 585.508,180.5 558.508,180.167 531.5,180.5C 530.167,180.5 528.833,180.5 527.5,180.5C 522.952,179.439 518.952,177.439 515.5,174.5 Z"/></g>
<g><path style="opacity:1" fill="#dbd9d7" d="M 398.5,187.5 C 398.795,189.735 398.461,191.735 397.5,193.5C 397.665,190.482 397.498,187.482 397,184.5C 396.25,183.874 395.416,183.374 394.5,183C 368.498,182.314 342.498,181.98 316.5,182C 315.151,182.772 314.318,183.939 314,185.5C 311.784,195.037 309.284,204.371 306.5,213.5C 307.689,205.292 308.689,196.959 309.5,188.5C 309.433,187.041 309.766,185.708 310.5,184.5C 311.931,183.22 312.598,181.553 312.5,179.5C 338.169,179.333 363.835,179.5 389.5,180C 392.513,180.502 395.513,181.002 398.5,181.5C 398.5,183.5 398.5,185.5 398.5,187.5 Z"/></g>
<g><path style="opacity:1" fill="#f4ebdf" d="M 123.5,126.5 C 122.833,129.5 122.167,132.5 121.5,135.5C 118.791,139.308 116.458,143.308 114.5,147.5C 109.588,154.32 104.922,161.32 100.5,168.5C 96.5872,173.988 92.9206,179.655 89.5,185.5C 87.1782,186.802 85.8449,188.802 85.5,191.5C 83.8532,194.473 81.8532,197.14 79.5,199.5C 78.1634,200.315 77.1634,201.482 76.5,203C 75.0993,203.41 73.766,203.91 72.5,204.5C 88.5079,177.808 105.508,151.808 123.5,126.5 Z"/></g>
<g><path style="opacity:1" fill="#844f55" d="M 531.5,180.5 C 558.508,180.167 585.508,180.5 612.5,181.5C 612.376,182.107 612.043,182.44 611.5,182.5C 584.833,181.833 558.167,181.167 531.5,180.5 Z"/></g>
<g><path style="opacity:1" fill="#efdbc7" d="M 146.5,181.5 C 146.5,182.5 146.5,183.5 146.5,184.5C 165.341,184.17 184.007,184.503 202.5,185.5C 183.167,185.5 163.833,185.5 144.5,185.5C 144.5,184.5 144.5,183.5 144.5,182.5C 145.167,182.167 145.833,181.833 146.5,181.5 Z"/></g>
<g><path style="opacity:1" fill="#e1dfde" d="M 149.5,178.5 C 149.5,179.833 149.5,181.167 149.5,182.5C 170.51,182.625 191.51,182.291 212.5,181.5C 212.649,182.552 212.483,183.552 212,184.5C 205.295,190.709 198.462,196.709 191.5,202.5C 191.615,200.053 192.615,198.053 194.5,196.5C 196.529,193.473 199.196,191.14 202.5,189.5C 203.782,188.042 203.782,186.708 202.5,185.5C 184.007,184.503 165.341,184.17 146.5,184.5C 146.5,183.5 146.5,182.5 146.5,181.5C 146.5,180.833 146.5,180.167 146.5,179.5C 147.609,179.443 148.609,179.11 149.5,178.5 Z"/></g>
<g><path style="opacity:1" fill="#670c15" d="M 527.5,180.5 C 528.833,180.5 530.167,180.5 531.5,180.5C 558.167,181.167 584.833,181.833 611.5,182.5C 611.5,183.167 611.5,183.833 611.5,184.5C 607.93,196.641 604.597,208.974 601.5,221.5C 574.165,221.667 546.831,221.5 519.5,221C 514.071,219.976 508.738,218.643 503.5,217C 501.934,216.392 500.6,215.558 499.5,214.5C 506.143,216.062 512.81,217.562 519.5,219C 546.506,219.833 573.506,219.667 600.5,218.5C 601.52,216.568 601.687,214.568 601,212.5C 598.415,212.037 596.248,210.87 594.5,209C 595.025,208.308 595.692,207.808 596.5,207.5C 597.914,208.624 599.414,209.624 601,210.5C 601.667,209.833 602.333,209.167 603,208.5C 604.638,202.598 605.804,196.598 606.5,190.5C 585.511,189.5 564.511,189.167 543.5,189.5C 543.5,188.5 543.5,187.5 543.5,186.5C 565.189,186.777 586.856,186.444 608.5,185.5C 608.5,184.5 608.5,183.5 608.5,182.5C 581.146,183.158 554.146,182.491 527.5,180.5 Z"/></g>
<g><path style="opacity:1" fill="#f1b574" d="M 89.5,185.5 C 88.6597,187.853 87.3264,189.853 85.5,191.5C 85.8449,188.802 87.1782,186.802 89.5,185.5 Z"/></g>
<g><path style="opacity:1" fill="#f0c083" d="M 144.5,182.5 C 144.5,183.5 144.5,184.5 144.5,185.5C 163.833,185.5 183.167,185.5 202.5,185.5C 203.782,186.708 203.782,188.042 202.5,189.5C 199.196,191.14 196.529,193.473 194.5,196.5C 193.391,196.557 192.391,196.89 191.5,197.5C 193.787,194.384 196.62,191.717 200,189.5C 200.617,188.551 200.451,187.718 199.5,187C 180.836,186.5 162.17,186.333 143.5,186.5C 143.232,184.901 143.566,183.568 144.5,182.5 Z"/></g>
<g><path style="opacity:0.984" fill="#c8bebd" d="M 451.5,164.5 C 452.735,164.721 453.735,165.388 454.5,166.5C 455.192,165.975 455.692,165.308 456,164.5C 457.309,169.066 457.809,173.733 457.5,178.5C 455.24,192.537 451.907,206.203 447.5,219.5C 447.223,214.552 448.223,209.885 450.5,205.5C 449.588,202.535 449.588,199.535 450.5,196.5C 451.83,188.84 453.164,181.173 454.5,173.5C 454.333,171.833 454.167,170.167 454,168.5C 452.905,167.307 452.072,165.973 451.5,164.5 Z"/></g>
<g><path style="opacity:1" fill="#c7bebe" d="M 461.5,161.5 C 461.833,161.5 462.167,161.5 462.5,161.5C 463.486,172.123 466.486,182.123 471.5,191.5C 473.639,196.386 476.805,200.719 481,204.5C 481.483,205.448 481.649,206.448 481.5,207.5C 470.962,198.921 463.962,187.921 460.5,174.5C 461.2,170.202 461.533,165.869 461.5,161.5 Z"/></g>
<g><path style="opacity:0.99" fill="#dcd1d0" d="M 184.5,169.5 C 199.167,169.5 213.833,169.5 228.5,169.5C 231.738,177.215 234.405,185.215 236.5,193.5C 238.174,201.016 240.174,208.516 242.5,216C 242.352,217.256 242.018,218.423 241.5,219.5C 236.07,205.144 231.236,190.478 227,175.5C 225.604,172.216 223.104,170.549 219.5,170.5C 217.341,170.88 215.174,171.213 213,171.5C 203.341,170.925 193.841,170.258 184.5,169.5 Z"/></g>
<g><path style="opacity:1" fill="#e5b97d" d="M 191.5,197.5 C 185.844,203.311 179.844,208.644 173.5,213.5C 178.698,207.239 184.698,201.906 191.5,197.5 Z"/></g>
<g><path style="opacity:1" fill="#ddb072" d="M 173.5,213.5 C 169.03,217.138 165.03,221.305 161.5,226C 160.099,226.41 158.766,226.91 157.5,227.5C 161.894,221.773 167.227,217.107 173.5,213.5 Z"/></g>
<g><path style="opacity:0.937" fill="#c5bfb7" d="M 194.5,196.5 C 192.615,198.053 191.615,200.053 191.5,202.5C 170.147,220.856 148.814,239.189 127.5,257.5C 127.733,255.938 128.4,254.605 129.5,253.5C 131.421,250.413 134.087,248.246 137.5,247C 140.094,244.914 142.094,242.414 143.5,239.5C 148.442,235.897 153.108,231.897 157.5,227.5C 158.766,226.91 160.099,226.41 161.5,226C 165.03,221.305 169.03,217.138 173.5,213.5C 179.844,208.644 185.844,203.311 191.5,197.5C 192.391,196.89 193.391,196.557 194.5,196.5 Z"/></g>
<g><path style="opacity:1" fill="#b3a9a8" d="M 401.5,195.5 C 400.338,202.314 398.672,208.981 396.5,215.5C 395.566,216.568 395.232,217.901 395.5,219.5C 412.009,219.83 428.342,219.496 444.5,218.5C 445.59,210.795 447.59,203.462 450.5,196.5C 449.588,199.535 449.588,202.535 450.5,205.5C 448.223,209.885 447.223,214.552 447.5,219.5C 447.5,220.5 447.5,221.5 447.5,222.5C 428.833,222.5 410.167,222.5 391.5,222.5C 393.341,212.803 395.341,203.136 397.5,193.5C 398.461,191.735 398.795,189.735 398.5,187.5C 399.117,187.389 399.617,187.056 400,186.5C 400.181,189.695 400.681,192.695 401.5,195.5 Z"/></g>
<g><path style="opacity:1" fill="#9b696d" d="M 396.5,215.5 C 396.5,216.5 396.5,217.5 396.5,218.5C 412.5,218.5 428.5,218.5 444.5,218.5C 428.342,219.496 412.009,219.83 395.5,219.5C 395.232,217.901 395.566,216.568 396.5,215.5 Z"/></g>
<g><path style="opacity:1" fill="#e6a245" d="M 67.5,219.5 C 83.4693,221.322 99.8026,222.155 116.5,222C 117.576,223.726 117.743,225.559 117,227.5C 115.113,229.026 114.113,231.026 114,233.5C 112.629,235.041 111.129,236.375 109.5,237.5C 110.671,233.838 112.504,230.504 115,227.5C 115.49,226.207 115.657,224.873 115.5,223.5C 99.3419,222.504 83.0085,222.17 66.5,222.5C 66.2627,221.209 66.596,220.209 67.5,219.5 Z"/></g>
<g><path style="opacity:1" fill="#e4b87e" d="M 69.5,214.5 C 69.6085,216.514 68.9418,218.18 67.5,219.5C 66.596,220.209 66.2627,221.209 66.5,222.5C 83.0085,222.17 99.3419,222.504 115.5,223.5C 98.8333,223.5 82.1667,223.5 65.5,223.5C 65.0541,219.64 66.3875,216.64 69.5,214.5 Z"/></g>
<g><path style="opacity:1" fill="#ab9f9d" d="M 611.5,184.5 C 611.5,188.833 611.5,193.167 611.5,197.5C 609.867,206.866 607.534,216.033 604.5,225C 575.475,225.923 546.475,225.589 517.5,224C 503.511,222.501 491.511,217.001 481.5,207.5C 481.649,206.448 481.483,205.448 481,204.5C 476.805,200.719 473.639,196.386 471.5,191.5C 475.933,196.166 480.267,201 484.5,206C 488.905,209.87 493.905,212.703 499.5,214.5C 500.6,215.558 501.934,216.392 503.5,217C 508.738,218.643 514.071,219.976 519.5,221C 546.831,221.5 574.165,221.667 601.5,221.5C 604.597,208.974 607.93,196.641 611.5,184.5 Z"/></g>
<g><path style="opacity:0.89" fill="#d0cac6" d="M 79.5,199.5 C 76.9079,205.024 73.5746,210.024 69.5,214.5C 66.3875,216.64 65.0541,219.64 65.5,223.5C 80.9911,224.496 96.6578,224.83 112.5,224.5C 112.715,226.179 112.048,227.179 110.5,227.5C 108.513,226.657 106.346,225.99 104,225.5C 89.2788,225.87 74.4455,226.203 59.5,226.5C 59.3433,225.127 59.51,223.793 60,222.5C 64.0297,216.321 68.1964,210.321 72.5,204.5C 73.766,203.91 75.0993,203.41 76.5,203C 77.1634,201.482 78.1634,200.315 79.5,199.5 Z"/></g>
<g><path style="opacity:0.802" fill="#bcb0b0" d="M 309.5,188.5 C 308.689,196.959 307.689,205.292 306.5,213.5C 305.816,217.571 304.816,221.571 303.5,225.5C 283.508,226.666 263.508,226.833 243.5,226C 242.331,223.993 241.665,221.827 241.5,219.5C 242.018,218.423 242.352,217.256 242.5,216C 240.174,208.516 238.174,201.016 236.5,193.5C 239.492,202.738 242.492,212.071 245.5,221.5C 254.308,222.832 263.475,223.498 273,223.5C 282.34,223.5 291.506,223.166 300.5,222.5C 303.523,211.068 306.523,199.734 309.5,188.5 Z"/></g>
<g><path style="opacity:1" fill="#a16a70" d="M 245.5,221.5 C 263.757,222.486 282.09,222.82 300.5,222.5C 291.506,223.166 282.34,223.5 273,223.5C 263.475,223.498 254.308,222.832 245.5,221.5 Z"/></g>
<g><path style="opacity:1" fill="#d9a86a" d="M 157.5,227.5 C 153.108,231.897 148.442,235.897 143.5,239.5C 147.253,234.413 151.919,230.413 157.5,227.5 Z"/></g>
<g><path style="opacity:1" fill="#b9aea2" d="M 65.5,223.5 C 82.1667,223.5 98.8333,223.5 115.5,223.5C 115.657,224.873 115.49,226.207 115,227.5C 112.504,230.504 110.671,233.838 109.5,237.5C 105.662,240.68 102.996,244.68 101.5,249.5C 100.542,249.953 99.7083,250.619 99,251.5C 96.2752,256.055 93.7752,260.722 91.5,265.5C 90.6597,267.853 89.3264,269.853 87.5,271.5C 86.8333,272.167 86.1667,272.833 85.5,273.5C 84.391,273.557 83.391,273.89 82.5,274.5C 91.5849,258.66 100.918,242.993 110.5,227.5C 112.048,227.179 112.715,226.179 112.5,224.5C 96.6578,224.83 80.9911,224.496 65.5,223.5 Z"/></g>
<g><path style="opacity:1" fill="#cba16c" d="M 143.5,239.5 C 142.094,242.414 140.094,244.914 137.5,247C 134.087,248.246 131.421,250.413 129.5,253.5C 128.391,253.557 127.391,253.89 126.5,254.5C 129.858,249.98 134.024,246.313 139,243.5C 139.432,240.928 140.932,239.594 143.5,239.5 Z"/></g>
<g><path style="opacity:1" fill="#d09f60" d="M 101.5,249.5 C 99.3774,255.616 96.044,260.949 91.5,265.5C 93.7752,260.722 96.2752,256.055 99,251.5C 99.7083,250.619 100.542,249.953 101.5,249.5 Z"/></g>
<g><path style="opacity:1" fill="#ce9e55" d="M 123.5,256.5 C 120.841,260.154 117.508,263.154 113.5,265.5C 116.211,261.788 119.544,258.788 123.5,256.5 Z"/></g>
<g><path style="opacity:1" fill="#c49555" d="M 87.5,271.5 C 86.6227,275.816 84.6227,279.482 81.5,282.5C 82.8386,279.497 84.1719,276.497 85.5,273.5C 86.1667,272.833 86.8333,272.167 87.5,271.5 Z"/></g>
<g><path style="opacity:1" fill="#c39353" d="M 107.5,271.5 C 103.817,275.18 99.817,278.514 95.5,281.5C 98.5736,277.096 102.574,273.763 107.5,271.5 Z"/></g>
<g><path style="opacity:1" fill="#9a8f84" d="M 129.5,253.5 C 128.4,254.605 127.733,255.938 127.5,257.5C 108.824,274.842 89.8236,291.842 70.5,308.5C 68.78,305.111 68.1134,301.444 68.5,297.5C 72.4166,289.325 77.0832,281.659 82.5,274.5C 83.391,273.89 84.391,273.557 85.5,273.5C 84.1719,276.497 82.8386,279.497 81.5,282.5C 80.0687,283.78 79.4021,285.447 79.5,287.5C 78.5041,287.414 77.6708,287.748 77,288.5C 75.3333,291.167 73.6667,293.833 72,296.5C 71.599,302.666 73.099,302.999 76.5,297.5C 76.8333,297.5 77.1667,297.5 77.5,297.5C 81.1051,295.528 84.1051,292.861 86.5,289.5C 89.5,286.833 92.5,284.167 95.5,281.5C 99.817,278.514 103.817,275.18 107.5,271.5C 109.5,269.5 111.5,267.5 113.5,265.5C 117.508,263.154 120.841,260.154 123.5,256.5C 124.71,256.068 125.71,255.401 126.5,254.5C 127.391,253.89 128.391,253.557 129.5,253.5 Z"/></g>
<g><path style="opacity:1" fill="#bd8d4d" d="M 86.5,289.5 C 84.1051,292.861 81.1051,295.528 77.5,297.5C 77.5106,295.983 78.1772,294.816 79.5,294C 81.7343,292.25 84.0676,290.75 86.5,289.5 Z"/></g>
<g><path style="opacity:1" fill="#d29848" d="M 79.5,287.5 C 77.6454,290.196 75.9787,293.029 74.5,296C 74.8361,297.03 75.5028,297.53 76.5,297.5C 73.099,302.999 71.599,302.666 72,296.5C 73.6667,293.833 75.3333,291.167 77,288.5C 77.6708,287.748 78.5041,287.414 79.5,287.5 Z"/></g>
<g><path style="opacity:1" fill="#828080" d="M 68.5,297.5 C 68.1134,301.444 68.78,305.111 70.5,308.5C 65.3547,313.892 59.6881,318.558 53.5,322.5C 57.7486,313.661 62.7486,305.328 68.5,297.5 Z"/></g>
<g><path style="opacity:0.122" fill="#bcbdbc" d="M 53.5,322.5 C 52.8333,323.167 52.8333,323.167 53.5,322.5 Z"/></g>
</svg>
